<svg width="371" height="352" viewBox="0 0 371 352" fill="none" xmlns="http://www.w3.org/2000/svg">
<path d="M28 105C8 79.4 63 15 94 24C125 33 199.278 52.8265 244 32C315.267 -1.18841 339.333 57.6667 339 81C313.007 117.976 301.281 139.11 324 183C359.892 235.425 359.579 271.587 257 316C182.004 348.471 122 316 94 292C66 268 29.0367 237.585 28 177C36.3333 163.667 48 130.6 28 105Z" fill="#E1DEDE"/>
<path d="M229.175 90H142.03C137.229 90 133.51 94.1984 134.088 98.964L153.146 255.964C153.633 259.98 157.042 263 161.088 263H213.748C217.863 263 221.307 259.878 221.709 255.782L237.137 98.7824C237.599 94.0775 233.903 90 229.175 90Z" fill="#F7F7F6"/>
<path d="M228.16 143H144.289C139.399 143 135.652 147.35 136.378 152.187L145.978 216.187C146.565 220.103 149.93 223 153.889 223H221.76C225.87 223 229.311 219.886 229.72 215.796L236.12 151.796C236.591 147.087 232.893 143 228.16 143Z" fill="#CBC295"/>
<rect x="128" y="82" width="114" height="16" rx="4" fill="#403624"/>
<path d="M237 89H135L144.273 67H226L237 89Z" fill="#403624"/>
</svg>

