<svg width="311" height="406" viewBox="0 0 311 406" fill="none" xmlns="http://www.w3.org/2000/svg">
<path d="M191.594 80.5046C175.415 65.9247 148.768 94.1125 130.686 74.6726C112.603 55.2328 72.6318 118.412 77.3903 136.88C82.1488 155.348 94.521 156.32 93.5693 174.788C92.6175 193.256 131.955 197.144 155.43 195.2C155.43 195.2 172.56 211.724 199.208 193.256C225.856 174.788 199.208 136.88 216.339 136.88C233.469 136.88 207.773 95.0845 191.594 80.5046Z" fill="#3F3932"/>
<path d="M151.966 132.395L142 118.321V91C155.289 96.7953 182.087 113.188 182.973 132.395C183.859 151.602 162.671 140.398 151.966 132.395Z" fill="#3F3932"/>
<path d="M168 147C168 160.807 157.479 176 144.5 176C131.521 176 121 160.807 121 147C121 133.193 131.521 122 144.5 122C157.479 122 168 133.193 168 147Z" fill="#FFFCF0"/>
<ellipse cx="226.543" cy="299.474" rx="9" ry="19.5" transform="rotate(-25.6025 226.543 299.474)" fill="#C4C4C4"/>
<ellipse cx="169.458" cy="332.211" rx="9" ry="16.9903" transform="rotate(-25.6025 169.458 332.211)" fill="#C4C4C4"/>
<path d="M161.491 331.882C135.158 340.549 81.4915 331.882 116.491 267.882C128.801 245.373 168.492 247.882 143.491 311.882C144.291 326.282 160.158 314.549 168.492 311.882L161.491 331.882Z" fill="#5DA4AD"/>
<path d="M225.095 297.485C209.905 320.675 162.536 347.347 150.016 275.485C145.612 250.21 178.214 227.434 198.554 293.064C208.155 303.826 213.249 284.761 218.104 277.482L225.095 297.485Z" fill="#3BB7C7"/>
<path d="M175 190C172 170 162 197 124 182C124 243 112 262 112 274C112 286 225 264 190 258C155 252 178 210 175 190Z" fill="#CC4516"/>
<path d="M213.982 152.956L177 180.395L198.355 185.781L226.323 159.648C230.133 145.425 245.027 105.894 239.5 104.5C233.973 103.106 217.583 138.68 213.982 152.956Z" fill="#FFFCF0"/>
<path d="M87.8113 148.456L119.268 181.555L97.7876 183.385L74.8387 153.044C73.3781 138.392 65.1586 96.9676 70.7183 96.4939C76.2779 96.0201 86.5614 133.786 87.8113 148.456Z" fill="#FFFCF0"/>
</svg>

